<svg xmlns="http://www.w3.org/2000/svg" viewBox="0 0 206.75789 275.74554"><g id="Layer_2" data-name="Layer 2"><g id="Layer_1-2" data-name="Layer 1"><path d="M152.55524,220.39992l-8.73269,8.70325c8.365,4.01913,13.47938,9.27831,13.47938,15.05436,0,12.5997-24.14216,22.8136-53.92295,22.8136S49.456,256.75723,49.456,244.15753c0-5.776,5.11423-11.03505,13.47921-15.05419l-8.7327-8.70342c-15.614,5.78972-25.48613,14.28352-25.48613,23.75761,0,17.44558,33.42765,31.588,74.66257,31.588s74.66257-14.14243,74.66257-31.588C178.04155,234.68344,168.16925,226.18982,152.55524,220.39992Z" style="fill:#fff"/><path d="M206.75789,103.37894A103.37895,103.37895,0,1,0,26.75141,172.76779H26.747l.03225.03208q3.49455,3.85368,7.36471,7.34l58.96075,58.76147.27395.27308a14.29653,14.29653,0,0,0,20.00051,0l.27395-.27308,58.96075-58.76147q3.86184-3.48535,7.36471-7.34l.03225-.03208h-.00438A102.99663,102.99663,0,0,0,206.75789,103.37894ZM103.37894,178.04152a74.66258,74.66258,0,1,1,74.66258-74.66258A74.66269,74.66269,0,0,1,103.37894,178.04152Z" style="fill:#00a8b6"/></g></g></svg>